<svg width="28" height="28" viewBox="0 0 28 28" fill="none" xmlns="http://www.w3.org/2000/svg">
<path d="M19.25 2C19.25 1.46957 19.4344 0.960859 19.7626 0.585786C20.0908 0.210714 20.5359 0 21 0H24.5C24.9641 0 25.4092 0.210714 25.7374 0.585786C26.0656 0.960859 26.25 1.46957 26.25 2V26H27.125C27.3571 26 27.5796 26.1054 27.7437 26.2929C27.9078 26.4804 28 26.7348 28 27C28 27.2652 27.9078 27.5196 27.7437 27.7071C27.5796 27.8946 27.3571 28 27.125 28H0.875C0.642936 28 0.420376 27.8946 0.256282 27.7071C0.0921872 27.5196 0 27.2652 0 27C0 26.7348 0.0921872 26.4804 0.256282 26.2929C0.420376 26.1054 0.642936 26 0.875 26H1.75V20C1.75 19.4696 1.93437 18.9609 2.26256 18.5858C2.59075 18.2107 3.03587 18 3.5 18H7C7.46413 18 7.90925 18.2107 8.23744 18.5858C8.56563 18.9609 8.75 19.4696 8.75 20V26H10.5V12C10.5 11.4696 10.6844 10.9609 11.0126 10.5858C11.3408 10.2107 11.7859 10 12.25 10H15.75C16.2141 10 16.6592 10.2107 16.9874 10.5858C17.3156 10.9609 17.5 11.4696 17.5 12V26H19.25V2Z" fill="#A77FEE"/>
</svg>
