<svg width="174" height="183" viewBox="0 0 174 183" fill="none" xmlns="http://www.w3.org/2000/svg">
<path d="M36.4167 183C33.6552 183 31.4167 180.761 31.4167 178V101.965C31.4167 99.7027 29.888 97.7482 27.7551 96.9955C20.8856 94.5712 14.7756 90.69 9.425 85.3518C3.14167 79.083 0 71.448 0 62.4466C0 53.9275 2.45694 46.3729 7.37083 39.7826C11.8556 33.7679 17.5145 29.4268 24.3477 26.7594C25.6098 26.2667 26.6613 25.3434 27.3013 24.1492C30.9752 17.294 36.1734 11.6553 42.8958 7.2332C50.2264 2.41107 58.4833 0 67.6667 0C73.3056 0 78.5819 0.964427 83.4958 2.89328C87.6698 4.53168 91.524 6.63397 95.0586 9.20016C96.2516 10.0663 97.7419 10.4372 99.1918 10.17C99.9826 10.0243 100.752 9.8892 101.5 9.76482C102.95 9.52372 104.561 9.40316 106.333 9.40316C116.967 9.40316 126.069 13.1805 133.642 20.7352C141.214 28.2899 145 37.3715 145 47.9802C145 51.5165 144.275 55.0527 142.825 58.5889V58.5889C141.374 62.1279 143.817 67.2688 147.642 67.2688H159.5C163.528 67.2688 166.951 68.6752 169.771 71.4881C172.59 74.3011 174 77.7167 174 81.7352V149.245C174 153.264 172.59 156.679 169.771 159.492C166.951 162.305 163.528 163.711 159.5 163.711H137.917C135.155 163.711 132.917 165.95 132.917 168.711V178C132.917 180.761 130.678 183 127.917 183H36.4167ZM14.5 62.4466C14.5 68.5547 16.9972 73.6983 21.9917 77.8775C26.9861 82.0567 32.5444 84.1462 38.6667 84.1462C43.8222 84.1462 48.4944 82.7398 52.6833 79.9269C56.8722 77.114 61.1417 73.0553 65.4917 67.751C69.1972 63.2503 73.6278 59.2319 78.7833 55.6957C83.9389 52.1594 89.9 50.3913 96.6667 50.3913H125.5C128.261 50.3913 130.549 48.1393 130.139 45.4084C129.366 40.2567 127.351 35.689 124.096 31.7055C119.826 26.4816 113.906 23.8696 106.333 23.8696C103.433 23.8696 100.574 24.3116 97.7542 25.1957L96.1394 25.702C94.5107 26.2127 92.734 25.8572 91.4272 24.7592L88.9333 22.664C86.0333 20.0922 82.7306 18.083 79.025 16.6364C75.3194 15.1897 71.5333 14.4664 67.6667 14.4664C62.0278 14.4664 56.6306 15.913 51.475 18.8063C46.3194 21.6996 42.5333 25.718 40.1167 30.8617L37.6326 36.1723C37.0579 37.4009 36.0087 38.3434 34.7256 38.7834L29 40.747C24.8111 42.1937 21.3472 45.0468 18.6083 49.3063C15.8694 53.5659 14.5 57.946 14.5 62.4466ZM132.917 144.245C132.917 147.006 135.155 149.245 137.917 149.245H154.5C157.261 149.245 159.5 147.006 159.5 144.245V86.7352C159.5 83.9738 157.261 81.7352 154.5 81.7352H137.917C135.155 81.7352 132.917 83.9738 132.917 86.7352V144.245Z" fill="#A77FEE"/>
</svg>
