<svg width="28" height="28" viewBox="0 0 28 28" fill="none" xmlns="http://www.w3.org/2000/svg">
<path d="M8.75 2C8.75 1.46957 8.56563 0.960859 8.23744 0.585786C7.90925 0.210714 7.46413 0 7 0H3.5C3.03587 0 2.59075 0.210714 2.26256 0.585786C1.93437 0.960859 1.75 1.46957 1.75 2V26H0.875C0.642936 26 0.420375 26.1054 0.256281 26.2929C0.0921866 26.4804 0 26.7348 0 27C0 27.2652 0.0921866 27.5196 0.256281 27.7071C0.420375 27.8946 0.642936 28 0.875 28H27.125C27.3571 28 27.5796 27.8946 27.7437 27.7071C27.9078 27.5196 28 27.2652 28 27C28 26.7348 27.9078 26.4804 27.7437 26.2929C27.5796 26.1054 27.3571 26 27.125 26H26.25V20C26.25 19.4696 26.0656 18.9609 25.7374 18.5858C25.4092 18.2107 24.9641 18 24.5 18H21C20.5359 18 20.0908 18.2107 19.7626 18.5858C19.4344 18.9609 19.25 19.4696 19.25 20V26H17.5V12C17.5 11.4696 17.3156 10.9609 16.9874 10.5858C16.6592 10.2107 16.2141 10 15.75 10H12.25C11.7859 10 11.3408 10.2107 11.0126 10.5858C10.6844 10.9609 10.5 11.4696 10.5 12V26H8.75V2Z" fill="#A77FEE"/>
</svg>
