<svg width="20" height="20" viewBox="0 0 20 20" fill="none" xmlns="http://www.w3.org/2000/svg">
<path d="M18.0012 11.8132C18.0012 11.294 18.4227 10.8725 18.9419 10.8725C19.4611 10.8725 19.8827 11.294 19.8827 11.8132V17.2152C19.8827 17.9818 19.5702 18.6784 19.0656 19.1829C18.5611 19.6875 17.8645 20 17.0979 20H2.78481C2.01822 20 1.32161 19.6875 0.817052 19.1829C0.312498 18.6784 0 17.9818 0 17.2152V2.79796C0 2.03137 0.312498 1.33476 0.817052 0.830201C1.32161 0.325647 2.01822 0.013149 2.78481 0.013149H8.15262C8.67182 0.013149 9.09337 0.434696 9.09337 0.953898C9.09337 1.4731 8.67182 1.89465 8.15262 1.89465H2.78481C2.53742 1.89465 2.31281 1.99719 2.14842 2.15995C1.98404 2.32433 1.88313 2.54894 1.88313 2.79633V17.2136C1.88313 17.461 1.98566 17.6856 2.14842 17.8499C2.31281 18.0143 2.53742 18.1152 2.78481 18.1152H17.0995C17.3469 18.1152 17.5715 18.0127 17.7359 17.8499C17.9003 17.6872 18.0012 17.461 18.0012 17.2136V11.8132ZM18.2974 2.84191L8.79063 12.4675C8.42768 12.837 7.83198 12.8418 7.46252 12.4789C7.09305 12.1159 7.08817 11.5202 7.45112 11.1508L16.5917 1.89465H12.7864C12.2672 1.89465 11.8456 1.4731 11.8456 0.953898C11.8456 0.434696 12.2672 0.013149 12.7864 0.013149H17.0995C17.9328 0.013149 19.007 -0.128452 19.6467 0.517703C20.0503 0.926229 19.9608 4.18304 19.9087 6.06943C19.8957 6.5577 19.8843 6.93042 19.8843 7.19735C19.8843 7.71655 19.4628 8.1381 18.9436 8.1381C18.4244 8.1381 18.0028 7.71655 18.0028 7.19735C18.0028 7.14689 18.0158 6.65699 18.0337 6.01897C18.0598 5.0359 18.2177 3.73383 18.2974 2.84191Z" fill="#A77FEE"/>
</svg>
