<svg width="18" height="18" viewBox="0 0 18 18" fill="none" xmlns="http://www.w3.org/2000/svg">
<path d="M8.25 18V15.9583C6.59722 15.7917 5.19097 15.1285 4.03125 13.9688C2.87153 12.809 2.20833 11.4028 2.04167 9.75H0V8.25H2.04167C2.20833 6.59722 2.87153 5.1875 4.03125 4.02083C5.19097 2.85417 6.59722 2.19444 8.25 2.04167V0H9.75V2.04167C11.4028 2.19444 12.809 2.85417 13.9688 4.02083C15.1285 5.1875 15.7917 6.59722 15.9583 8.25H18V9.75H15.9583C15.7917 11.4028 15.1285 12.809 13.9688 13.9688C12.809 15.1285 11.4028 15.7917 9.75 15.9583V18H8.25ZM9 14.5C10.5278 14.5 11.8264 13.9653 12.8958 12.8958C13.9653 11.8264 14.5 10.5278 14.5 9C14.5 7.47222 13.9653 6.17361 12.8958 5.10417C11.8264 4.03472 10.5278 3.5 9 3.5C7.47222 3.5 6.17361 4.03472 5.10417 5.10417C4.03472 6.17361 3.5 7.47222 3.5 9C3.5 10.5278 4.03472 11.8264 5.10417 12.8958C6.17361 13.9653 7.47222 14.5 9 14.5Z" fill="#555555"/>
</svg>
