<svg width="873" height="832" viewBox="0 0 873 832" fill="none" xmlns="http://www.w3.org/2000/svg">
<path d="M198.946 827.636C177.526 840.567 151.1 821.38 156.737 796.991L215.305 543.611C217.669 533.386 214.191 522.693 206.268 515.816L9.80509 345.366C-9.09432 328.967 0.983425 297.893 25.903 295.729L285.603 273.17C296.056 272.26 305.15 265.644 309.233 255.973L410.031 17.3031C419.773 -5.76772 452.446 -5.76767 462.189 17.3031L562.987 255.973C567.072 265.644 576.163 272.26 586.616 273.17L846.316 295.729C871.236 297.893 881.315 328.967 862.414 345.366L665.954 515.816C658.029 522.693 654.552 533.386 656.913 543.611L715.483 796.991C721.12 821.38 694.694 840.567 673.275 827.636L450.733 693.294C441.738 687.865 430.481 687.865 421.486 693.294L198.946 827.636Z" fill="url(#paint0_radial_57_1638)"/>
<defs>
<radialGradient id="paint0_radial_57_1638" cx="0" cy="0" r="1" gradientUnits="userSpaceOnUse" gradientTransform="translate(912.952 -44.4469) rotate(136.448) scale(1315.89 1385.19)">
<stop offset="0.359375" stop-color="#FFCB5D"/>
<stop offset="0.848958" stop-color="#FE7864"/>
</radialGradient>
</defs>
</svg>
